<svg width="512" height="512" viewBox="0 0 64 64" fill="none" xmlns="http://www.w3.org/2000/svg">
  <defs>
    <linearGradient id="bg" x1="10" y1="8" x2="54" y2="58" gradientUnits="userSpaceOnUse">
      <stop stop-color="#101826" />
      <stop offset="1" stop-color="#1E334A" />
    </linearGradient>
    <radialGradient id="glowWarm" cx="0" cy="0" r="1" gradientUnits="userSpaceOnUse" gradientTransform="translate(19 13) rotate(40) scale(28 24)">
      <stop stop-color="#F5C56B" stop-opacity="0.28" />
      <stop offset="1" stop-color="#F5C56B" stop-opacity="0" />
    </radialGradient>
    <radialGradient id="glowCool" cx="0" cy="0" r="1" gradientUnits="userSpaceOnUse" gradientTransform="translate(50 49) rotate(135) scale(34 28)">
      <stop stop-color="#48B0DB" stop-opacity="0.22" />
      <stop offset="1" stop-color="#48B0DB" stop-opacity="0" />
    </radialGradient>
    <linearGradient id="cool" x1="14" y1="20" x2="44" y2="42" gradientUnits="userSpaceOnUse">
      <stop stop-color="#70E1F7" />
      <stop offset="1" stop-color="#2090C9" />
    </linearGradient>
    <linearGradient id="warm" x1="18" y1="15" x2="51" y2="36" gradientUnits="userSpaceOnUse">
      <stop stop-color="#FFD992" />
      <stop offset="1" stop-color="#F0A63F" />
    </linearGradient>
    <linearGradient id="sheet" x1="16" y1="16" x2="48" y2="42" gradientUnits="userSpaceOnUse">
      <stop stop-color="#FFF7E9" />
      <stop offset="1" stop-color="#F7E4C4" />
    </linearGradient>
  </defs>
  <rect x="3" y="3" width="58" height="58" rx="18" fill="url(#bg)" />
  <rect x="3" y="3" width="58" height="58" rx="18" fill="url(#glowWarm)" />
  <rect x="3" y="3" width="58" height="58" rx="18" fill="url(#glowCool)" />
  <rect x="3.5" y="3.5" width="57" height="57" rx="17.5" stroke="white" stroke-opacity="0.08" />
  <rect x="9" y="18" width="34" height="23" rx="7" transform="rotate(-11 9 18)" fill="url(#cool)" opacity="0.3" />
  <rect x="19" y="12" width="33" height="23" rx="7" transform="rotate(8 19 12)" fill="url(#warm)" opacity="0.4" />
  <rect x="15.2" y="19.2" width="36" height="25" rx="8" transform="rotate(-3 15.2 19.2)" fill="black" fill-opacity="0.08" />
  <rect x="14" y="17" width="36" height="25" rx="8" transform="rotate(-3 14 17)" fill="url(#sheet)" />
  <rect x="14" y="17" width="36" height="25" rx="8" transform="rotate(-3 14 17)" stroke="#15324E" stroke-opacity="0.14" />
  <rect x="24" y="19.5" width="15" height="15" rx="4" transform="rotate(45 24 19.5)" stroke="#163C63" stroke-width="2.6" />
  <circle cx="31.5" cy="27" r="6.2" fill="#F4B24B" fill-opacity="0.12" />
  <circle cx="31.5" cy="27" r="3.2" fill="#F4B24B" />
  <path d="M45 11.5V24.5" stroke="#59D1F2" stroke-width="2" stroke-linecap="round" />
  <path d="M38.5 18H51.5" stroke="#59D1F2" stroke-width="2" stroke-linecap="round" />
  <path d="M40.5 13.5L49.5 22.5" stroke="#59D1F2" stroke-width="2" stroke-linecap="round" />
  <path d="M40.5 22.5L49.5 13.5" stroke="#59D1F2" stroke-width="2" stroke-linecap="round" />
  <circle cx="45" cy="18" r="1.5" fill="#59D1F2" />
</svg>
